<svg xmlns="http://www.w3.org/2000/svg" width="720" height="180" viewBox="0 0 720 180">
  <style>
    text { font-family: Arial, sans-serif; font-size: 18px; fill: #202124; }
    .label { font-weight: 700; font-size: 20px; }
    .node { fill: #fff; stroke: #202124; stroke-width: 2; }
    .line { stroke: #202124; stroke-width: 2; fill: none; }
  </style>
  <text x="24" y="28" class="label">A</text>
  <circle class="node" cx="82" cy="24" r="15"/><text x="77" y="30">①</text>
  <circle class="node" cx="44" cy="78" r="15"/><text x="39" y="84">②</text>
  <circle class="node" cx="82" cy="78" r="15"/><text x="77" y="84">③</text>
  <circle class="node" cx="120" cy="78" r="15"/><text x="115" y="84">④</text>
  <circle class="node" cx="82" cy="132" r="15"/><text x="77" y="138">⑤</text>
  <path class="line" d="M75 38 L51 64 M82 39 L82 63 M89 38 L113 64 M51 92 L75 118 M82 93 L82 117 M113 92 L89 118"/>

  <text x="204" y="28" class="label">B</text>
  <circle class="node" cx="262" cy="24" r="15"/><text x="257" y="30">①</text>
  <circle class="node" cx="262" cy="78" r="15"/><text x="257" y="84">②</text>
  <circle class="node" cx="224" cy="132" r="15"/><text x="219" y="138">③</text>
  <circle class="node" cx="262" cy="132" r="15"/><text x="257" y="138">④</text>
  <circle class="node" cx="300" cy="132" r="15"/><text x="295" y="138">⑤</text>
  <path class="line" d="M262 39 L262 63 M255 92 L231 118 M262 93 L262 117 M269 92 L293 118"/>

  <text x="384" y="28" class="label">C</text>
  <circle class="node" cx="442" cy="24" r="15"/><text x="437" y="30">①</text>
  <circle class="node" cx="404" cy="106" r="15"/><text x="399" y="112">②</text>
  <circle class="node" cx="442" cy="106" r="15"/><text x="437" y="112">③</text>
  <circle class="node" cx="480" cy="106" r="15"/><text x="475" y="112">④</text>
  <circle class="node" cx="518" cy="106" r="15"/><text x="513" y="112">⑤</text>
  <path class="line" d="M435 38 L410 92 M440 39 L442 90 M448 38 L475 92 M453 35 L510 93"/>

  <text x="564" y="28" class="label">D</text>
  <circle class="node" cx="622" cy="24" r="15"/><text x="617" y="30">①</text>
  <circle class="node" cx="584" cy="78" r="15"/><text x="579" y="84">②</text>
  <circle class="node" cx="622" cy="78" r="15"/><text x="617" y="84">③</text>
  <circle class="node" cx="660" cy="78" r="15"/><text x="655" y="84">④</text>
  <circle class="node" cx="622" cy="132" r="15"/><text x="617" y="138">⑤</text>
  <path class="line" d="M615 38 L591 64 M622 39 L622 63 M629 38 L653 64 M591 92 L615 118 M622 93 L622 117 M653 92 L629 118"/>
</svg>
